<svg width="67" height="28" xmlns="http://www.w3.org/2000/svg"><path d="M32.336 1.238c1.274-.386 2.92-1.393 4.196-.386.897 1.393 3.368 1.855 2.695 3.789 1.27 1.625 2.693 3.478 4.339 4.717.375.079.524-.153.674-.386l-.448-.231c.525-.465 1.795.308 2.62-.157.523 0 1.272.157 1.648.695.373.622.45 1.394.972 2.012l.299-.152c.375.695.524 1.314.972 1.933 2.698.926 3.97 4.252 6.365 5.645 2.92 2.243 5.987 4.486 9.43 5.8-.148.465.376.465.6.62v.078c-.449-.233-1.046-.465-1.498-.31.452.697 1.574.385 1.8 1.16h-1.201c0 .232.3.232.45.31-.597-.233-1.199.232-1.572-.542-2.47-1.083-4.717-2.63-6.886-4.021l-.072.075c1.719 1.704 4.113 2.939 6.062 4.1.672.388 1.643.62 2.018 1.315-.224.077-.599.077-.672.387l-.525-.31c-.149.079 0 .233-.075.31L64.9 28c-2.545-1.085-5.388-2.71-7.71-4.642-1.124-.774-2.245-1.391-3.368-2.243-.15 0-.374-.077-.45.156 1.275 1.004 2.62 1.623 3.892 2.552-2.32-1.16-5.09-2.863-6.962-5.182-.824-.853-2.02-2.631-3.442-2.321-.524.308-1.346.233-1.948.54-.446 0-.823-.54-1.27-.154-.375.851-1.573.155-1.799 1.082-.746.311-2.093.078-2.32 1.007l.076.386c-1.499.696-3.519.465-4.566 1.934-.302.308-.898-.077-1.196.308.072-.152-.078-.308-.228-.308-.374-.155-.598.231-.9.308-.221-.385.302-.463.228-.695-.674-.31-.975.618-1.499.928.077-.618.75-.696.974-1.237-.376-.23-.673.155-.974.232.15-.077.448-.62 0-.62.376-.618 1.198-.385 1.422-1.081h-.597a38.323 38.323 0 0 0 1.793-1.47c-.219 0-.673-.62-1.045-.078 0-.078.152-.155.073-.231-.299-.31-.672.23-1.048.23 0 .08.077-.23-.15-.307h-.222c.222-.155.524-.54.824-.774l-.153-.155c1.126-.697 2.247-1.47 3.373-2.012l.221-.233a.767.767 0 0 0-1.198 0c.977-.074.076-1.16 1.049-1.312.15-.851.899-1.469 1.497-1.856-.974-.929-1.348-2.633-2.47-3.17-.076-.697-.75 0-.823-.697-1.348-.08-2.92.616-3.82-.619-.674-.233-1.566-.155-2.243-.078-.6.54-.823 1.313-1.198 1.931-.601.465-.898 1.239-1.346 1.935-.674.93-1.5 2.09-2.695 2.475v-.154c-.824 1.16-2.622.697-3.67 1.933l-.074-.31a.623.623 0 0 0-.75.466v.154c-.525-.154-.897.463-1.12.771-1.276 1.393-3.37 1.393-4.717 2.555-.152.076.073 0 0-.078-2.473.544-3.67 2.475-5.317 4.332-.448.772-1.198 1.237-1.795 1.856.15.62-.75.85-1.049 1.161.3-.542.971-1.006 1.05-1.624-.602.31-.75 1.004-1.423 1.313-.378-.309.373-.54.15-.85l-.899.696.824-1.16c-.453.076-.902.851-1.425.928-.148.232-.374.232-.671.232v-.077c.297-.232.823-.773 1.272-1.238-.524-.309-1.124.388-1.502.31-.147-.08-.07-.464-.446-.31.375-.309.749-.54.9-1.004-.302-.078-.674.153-.976.31.076-.388.825-.622.601-1.24-.97-.155-.823.852-1.646 1.083.823-1.161 2.021-1.856 2.844-3.092l-.077-.08c1.573-1.777 3.52-2.859 5.465-4.023 1.574-.925 3.667-1.391 4.793-2.936.448-.619.896-1.162 1.197-1.78.224.079.301-.155.374-.308 1.124-.695 2.322-1.16 3.669-1.16.598-.621 1.723-.233 2.17-1.086 1.572-1.93 2.171-4.33 3.517-6.263.45-.618.974-1.625 1.874-1.856 2.245.231 4.415.617 6.51 1.238" fill="#FFF" fill-rule="evenodd"/></svg>